<mxfile host="app.diagrams.net" modified="2023-10-25T03:05:40.648Z" agent="Mozilla/5.0 (Macintosh; Intel Mac OS X 10_15_7) AppleWebKit/537.36 (KHTML, like Gecko) Chrome/118.0.0.0 Safari/537.36" version="22.0.7" etag="kbWcFTz4I19Lkt8n3o7U" type="github">
  <diagram name="第 1 页" id="XC9ZKMbXldiPLRK5kojn">
    <mxGraphModel>
      <root>
        <mxCell id="0" />
        <mxCell id="1" parent="0" />
      </root>
    </mxGraphModel>
  </diagram>
</mxfile>
